<svg id="svg" version="1.1" xmlns="http://www.w3.org/2000/svg" xmlns:xlink="http://www.w3.org/1999/xlink" width="400" height="400" viewBox="0, 0, 400,400"><g id="svgg"><path id="path0" d="M66.700 153.123 C 34.107 156.526,14.660 189.029,27.423 218.772 C 39.104 245.995,74.017 255.626,97.902 238.213 C 99.474 237.067,99.430 237.010,97.485 237.671 C 73.080 245.967,46.603 229.875,42.408 204.195 C 38.397 179.648,56.930 156.476,81.543 155.260 C 84.459 155.117,84.472 154.995,81.640 154.319 C 77.422 153.310,70.340 152.743,66.700 153.123 M93.061 153.483 L 92.500 153.965 92.500 160.800 L 92.500 167.635 93.061 168.117 L 93.622 168.600 100.811 168.600 L 108.000 168.600 108.000 207.309 L 108.000 246.018 108.498 246.516 L 108.996 247.015 116.091 246.957 C 122.590 246.905,123.216 246.870,123.543 246.543 C 123.883 246.203,123.902 244.319,123.952 207.393 L 124.003 168.600 130.988 168.600 C 140.401 168.600,139.476 169.344,139.566 161.700 C 139.642 155.175,139.557 154.139,138.891 153.473 L 138.418 153.000 116.020 153.000 L 93.622 153.000 93.061 153.483 M148.185 153.585 L 147.600 154.169 147.600 200.000 L 147.600 245.831 148.185 246.415 L 148.769 247.000 170.975 247.000 C 194.830 247.000,194.008 247.037,194.390 245.943 C 194.673 245.131,194.673 233.269,194.390 232.457 C 194.015 231.381,194.309 231.400,178.291 231.400 L 163.400 231.400 163.400 219.600 L 163.400 207.800 174.915 207.800 L 186.431 207.800 187.015 207.215 L 187.600 206.631 187.600 200.002 C 187.600 195.636,187.526 193.236,187.384 192.970 C 186.878 192.025,186.552 192.000,174.606 192.000 L 163.400 192.000 163.400 180.400 L 163.400 168.800 177.950 168.799 C 193.895 168.798,193.853 168.801,194.316 167.693 C 194.669 166.848,194.733 155.042,194.390 154.057 C 194.008 152.963,194.830 153.000,170.975 153.000 L 148.769 153.000 148.185 153.585 M206.785 153.585 L 206.200 154.169 206.200 200.000 L 206.200 245.831 206.785 246.415 L 207.369 247.000 214.294 247.000 L 221.218 247.000 221.709 246.509 L 222.200 246.018 222.200 220.709 C 222.200 194.494,222.219 193.859,222.954 195.950 C 231.248 219.554,240.908 245.975,241.417 246.450 L 242.006 247.000 248.619 247.000 L 255.231 247.000 255.815 246.415 L 256.400 245.831 256.400 200.000 L 256.400 154.169 255.815 153.585 L 255.231 153.000 248.306 153.000 L 241.382 153.000 240.891 153.491 L 240.400 153.982 240.400 179.191 C 240.400 203.068,240.382 204.400,240.050 204.396 C 239.767 204.393,237.981 199.575,230.700 179.175 C 222.956 157.479,221.621 153.892,221.135 153.479 L 220.569 153.000 213.969 153.000 L 207.369 153.000 206.785 153.585 M268.661 153.483 L 268.100 153.965 268.048 199.733 C 267.993 247.981,267.962 246.336,268.923 246.774 C 269.734 247.143,299.535 247.084,302.000 246.708 C 310.022 245.485,314.296 240.669,314.995 232.066 C 315.261 228.792,315.267 171.185,315.002 168.000 C 314.411 160.891,311.362 156.363,305.746 154.249 C 302.554 153.048,301.784 153.002,284.661 153.001 L 269.222 153.000 268.661 153.483 M327.700 153.231 C 326.803 153.722,326.800 153.750,326.806 160.788 C 326.813 167.847,326.817 167.877,327.737 168.367 C 328.061 168.540,333.886 168.600,350.402 168.600 L 372.631 168.600 373.215 168.015 L 373.800 167.431 373.800 160.925 C 373.800 154.042,373.749 153.623,372.869 153.222 C 372.184 152.910,328.271 152.919,327.700 153.231 M69.627 168.511 C 69.172 169.090,68.474 171.127,67.680 174.200 C 66.698 177.999,66.949 177.770,62.413 178.996 C 55.212 180.943,55.090 181.773,61.746 183.522 C 67.069 184.920,66.585 184.461,67.914 189.376 C 69.795 196.328,70.628 196.340,72.501 189.445 C 73.845 184.499,73.381 184.978,78.065 183.707 C 85.633 181.652,85.525 180.960,77.300 178.790 C 73.590 177.811,73.693 177.918,72.702 174.009 C 71.324 168.573,70.599 167.276,69.627 168.511 M296.500 168.821 C 297.619 169.126,298.578 169.910,299.017 170.877 C 299.546 172.040,299.616 227.696,299.090 228.954 C 298.155 231.192,297.806 231.289,290.450 231.363 L 284.200 231.426 284.200 200.013 L 284.200 168.600 289.950 168.601 C 293.483 168.602,296.008 168.686,296.500 168.821 M340.600 177.614 C 333.173 178.510,328.634 182.565,327.203 189.584 C 326.796 191.583,326.789 192.028,326.847 212.961 L 326.905 234.300 327.351 235.900 C 329.128 242.270,333.551 245.964,340.400 246.801 C 344.415 247.291,360.361 246.969,362.645 246.352 C 368.225 244.843,371.623 241.447,373.159 235.845 L 373.692 233.900 373.759 213.500 C 373.807 199.070,373.760 192.558,373.598 191.248 C 372.692 183.881,368.823 179.501,361.800 177.892 C 360.072 177.496,343.394 177.277,340.600 177.614 M356.741 193.437 C 357.250 193.774,357.728 194.332,358.026 194.937 L 358.500 195.900 358.500 212.200 C 358.500 230.197,358.552 229.455,357.212 230.665 C 356.154 231.622,355.099 231.800,350.500 231.800 C 345.027 231.800,343.727 231.394,342.820 229.403 C 342.421 228.526,342.219 197.893,342.601 196.105 C 343.242 193.103,344.058 192.775,350.715 192.845 L 355.930 192.900 356.741 193.437 M82.438 194.947 C 81.969 195.605,81.528 196.869,80.499 200.500 C 79.152 205.251,79.209 205.221,73.900 203.912 C 66.322 202.044,65.954 202.556,71.040 207.900 C 75.460 212.545,75.514 211.771,70.403 217.101 C 66.086 221.603,66.662 222.165,73.795 220.407 C 79.430 219.018,79.026 218.767,80.794 224.776 C 82.868 231.826,83.486 231.766,85.637 224.313 C 87.187 218.941,87.016 219.039,92.437 220.395 C 100.156 222.324,100.402 221.732,94.460 215.538 C 91.028 211.961,90.991 212.348,95.191 207.925 C 100.388 202.451,100.027 202.015,91.944 204.008 C 86.865 205.259,87.245 205.524,85.507 199.518 C 84.090 194.618,83.402 193.593,82.438 194.947 " stroke="none" fill="#141414" fill-rule="evenodd"></path><path id="path1" d="M240.297 179.600 C 240.297 193.295,240.321 198.898,240.350 192.050 C 240.379 185.203,240.379 173.998,240.350 167.150 C 240.321 160.303,240.297 165.905,240.297 179.600 M326.689 160.800 C 326.689 164.155,326.716 165.528,326.750 163.850 C 326.783 162.173,326.783 159.428,326.750 157.750 C 326.716 156.072,326.689 157.445,326.689 160.800 M310.592 157.250 C 311.420 158.133,311.600 158.292,311.600 158.142 C 311.600 158.110,311.173 157.682,310.650 157.192 L 309.700 156.300 310.592 157.250 M38.200 165.700 C 37.714 166.195,37.362 166.600,37.417 166.600 C 37.472 166.600,37.914 166.195,38.400 165.700 C 38.886 165.205,39.238 164.800,39.183 164.800 C 39.128 164.800,38.686 165.205,38.200 165.700 M54.200 167.500 C 53.714 167.995,53.362 168.400,53.417 168.400 C 53.472 168.400,53.914 167.995,54.400 167.500 C 54.886 167.005,55.238 166.600,55.183 166.600 C 55.128 166.600,54.686 167.005,54.200 167.500 M36.200 167.700 C 35.714 168.195,35.362 168.600,35.417 168.600 C 35.472 168.600,35.914 168.195,36.400 167.700 C 36.886 167.205,37.238 166.800,37.183 166.800 C 37.128 166.800,36.686 167.205,36.200 167.700 M107.898 207.000 C 107.898 228.175,107.921 236.838,107.950 226.250 C 107.979 215.663,107.979 198.338,107.950 187.750 C 107.921 177.163,107.898 185.825,107.898 207.000 M330.989 181.750 L 330.300 182.500 331.050 181.811 C 331.748 181.169,331.892 181.000,331.739 181.000 C 331.706 181.000,331.368 181.338,330.989 181.750 M326.696 212.100 C 326.696 222.330,326.720 226.486,326.750 221.335 C 326.780 216.184,326.780 207.814,326.750 202.735 C 326.720 197.656,326.696 201.870,326.696 212.100 M41.854 196.000 C 41.854 196.495,41.893 196.697,41.941 196.450 C 41.989 196.203,41.989 195.798,41.941 195.550 C 41.893 195.303,41.854 195.505,41.854 196.000 M342.495 211.800 C 342.495 220.215,342.520 223.657,342.550 219.450 C 342.580 215.243,342.580 208.357,342.550 204.150 C 342.520 199.942,342.495 203.385,342.495 211.800 M41.850 198.900 C 41.853 199.340,41.894 199.496,41.941 199.248 C 41.989 198.999,41.987 198.639,41.937 198.448 C 41.887 198.256,41.848 198.460,41.850 198.900 M23.470 200.000 C 23.470 200.935,23.504 201.317,23.546 200.850 C 23.589 200.383,23.589 199.618,23.546 199.150 C 23.504 198.683,23.470 199.065,23.470 200.000 M68.800 205.663 C 68.800 205.697,69.093 205.990,69.450 206.313 L 70.100 206.900 69.513 206.250 C 68.965 205.644,68.800 205.508,68.800 205.663 M94.794 208.350 L 93.500 209.700 94.850 208.406 C 96.104 207.204,96.291 207.000,96.144 207.000 C 96.114 207.000,95.506 207.607,94.794 208.350 M92.800 213.863 C 92.800 213.897,93.093 214.190,93.450 214.513 L 94.100 215.100 93.513 214.450 C 92.965 213.844,92.800 213.708,92.800 213.863 M70.895 216.450 L 69.300 218.100 70.950 216.505 C 72.482 215.023,72.691 214.800,72.545 214.800 C 72.515 214.800,71.773 215.543,70.895 216.450 M315.046 231.200 C 315.046 231.585,315.088 231.743,315.138 231.550 C 315.188 231.357,315.188 231.043,315.138 230.850 C 315.088 230.657,315.046 230.815,315.046 231.200 M36.192 232.250 C 36.682 232.773,37.110 233.200,37.142 233.200 C 37.292 233.200,37.133 233.020,36.250 232.192 L 35.300 231.300 36.192 232.250 M38.192 234.250 C 38.682 234.773,39.110 235.200,39.142 235.200 C 39.292 235.200,39.133 235.020,38.250 234.192 L 37.300 233.300 38.192 234.250 " stroke="none" fill="#303030" fill-rule="evenodd"></path><path id="path2" d="" stroke="none" fill="#181414" fill-rule="evenodd"></path><path id="path3" d="M71.300 152.994 C 75.837 153.150,78.140 153.441,81.849 154.323 C 84.655 154.991,84.654 155.115,81.843 155.261 C 63.556 156.208,47.697 169.290,43.218 187.120 C 42.473 190.087,41.991 193.328,42.029 195.126 C 42.053 196.290,42.082 196.161,42.217 194.280 C 43.732 173.301,62.475 155.400,82.925 155.400 C 84.241 155.400,84.421 155.357,84.363 155.055 C 84.183 154.123,77.302 152.980,71.400 152.902 L 66.900 152.842 71.300 152.994 M115.900 152.947 C 139.961 152.998,139.005 152.953,139.390 154.059 C 139.672 154.865,139.673 166.781,139.392 167.521 C 138.983 168.597,139.059 168.587,131.250 168.594 L 124.000 168.600 124.000 207.278 C 124.000 245.055,123.991 245.967,123.618 246.428 L 123.236 246.900 116.068 247.005 L 108.900 247.110 116.059 247.155 L 123.218 247.200 123.709 246.709 L 124.200 246.218 124.200 207.509 L 124.200 168.800 131.389 168.800 L 138.578 168.800 139.139 168.317 L 139.700 167.835 139.700 160.800 L 139.700 153.765 139.139 153.283 L 138.578 152.800 116.039 152.849 L 93.500 152.898 115.900 152.947 M148.264 153.038 C 147.372 153.469,147.394 152.230,147.449 200.100 L 147.501 245.900 147.550 199.941 L 147.600 153.982 148.091 153.491 L 148.582 153.000 171.069 153.000 C 192.907 153.000,193.569 153.011,194.028 153.382 L 194.500 153.764 194.557 160.662 L 194.615 167.560 194.125 168.130 L 193.635 168.700 178.517 168.754 L 163.400 168.807 163.400 180.399 L 163.400 191.991 174.984 192.045 L 186.568 192.100 187.084 192.585 L 187.600 193.070 187.600 199.944 L 187.600 206.818 187.109 207.309 L 186.618 207.800 175.009 207.800 L 163.400 207.800 163.400 219.600 L 163.400 231.400 178.509 231.400 L 193.618 231.400 194.117 231.898 L 194.615 232.397 194.557 239.316 L 194.500 246.236 194.028 246.618 C 193.569 246.989,192.907 247.000,171.069 247.000 L 148.582 247.000 148.091 246.509 C 147.624 246.042,147.438 246.048,147.753 246.520 C 148.199 247.188,148.603 247.200,171.265 247.200 C 193.111 247.200,193.769 247.189,194.228 246.818 L 194.700 246.435 194.700 239.200 L 194.700 231.965 194.228 231.582 C 193.772 231.213,193.225 231.200,178.678 231.200 L 163.600 231.200 163.600 219.600 L 163.600 208.000 174.991 208.000 C 182.913 208.000,186.530 207.932,186.869 207.778 C 187.753 207.375,187.800 206.972,187.800 199.802 L 187.800 193.022 187.317 192.461 L 186.835 191.900 175.217 191.845 L 163.600 191.791 163.600 180.399 L 163.600 169.007 178.695 168.954 L 193.789 168.900 194.245 168.444 L 194.700 167.989 194.700 160.777 L 194.700 153.565 194.228 153.182 C 193.674 152.734,149.183 152.594,148.264 153.038 M206.763 153.144 C 206.468 153.327,206.177 153.662,206.116 153.888 C 205.948 154.514,205.985 246.069,206.153 246.312 C 206.755 247.178,206.959 247.200,214.354 247.200 L 221.418 247.200 221.909 246.709 L 222.400 246.218 222.407 220.859 C 222.413 197.985,222.444 195.549,222.721 196.000 C 222.890 196.275,222.976 196.335,222.914 196.134 C 222.851 195.932,222.800 195.685,222.800 195.584 C 222.800 195.483,222.665 195.400,222.500 195.400 C 222.235 195.400,222.200 198.354,222.200 220.785 L 222.200 246.171 221.673 246.585 C 221.163 246.987,220.925 247.000,214.164 247.000 L 207.182 247.000 206.691 246.509 L 206.200 246.018 206.200 200.000 L 206.200 153.982 206.691 153.491 L 207.182 153.000 213.801 153.000 C 221.530 153.000,221.328 152.957,222.005 154.747 C 222.419 155.842,236.774 195.903,238.790 201.591 C 239.315 203.070,239.843 204.314,239.964 204.355 C 240.101 204.400,240.080 204.218,239.906 203.864 C 239.754 203.554,235.660 192.185,230.809 178.600 C 223.163 157.186,221.909 153.827,221.391 153.350 L 220.794 152.800 214.047 152.805 C 208.107 152.810,207.236 152.850,206.763 153.144 M248.468 152.995 L 255.636 153.100 256.018 153.572 C 256.392 154.034,256.400 155.059,256.400 200.031 L 256.400 246.018 255.902 246.517 L 255.403 247.015 248.520 246.957 C 244.735 246.926,241.741 246.966,241.869 247.047 C 241.996 247.128,245.125 247.195,248.823 247.197 L 255.545 247.200 256.073 246.673 L 256.600 246.145 256.600 200.000 L 256.600 153.855 256.073 153.327 L 255.545 152.800 248.423 152.845 L 241.300 152.890 248.468 152.995 M268.936 152.942 C 268.882 153.029,276.322 153.100,285.469 153.100 C 302.045 153.100,302.106 153.101,303.800 153.547 C 309.733 155.108,313.243 158.788,314.723 165.000 C 315.056 166.398,315.088 168.724,315.194 199.100 L 315.307 231.700 315.354 200.471 C 315.384 179.957,315.329 168.547,315.192 167.216 C 314.423 159.721,310.723 155.155,303.964 153.358 C 302.240 152.900,269.204 152.508,268.936 152.942 M327.357 153.148 C 326.847 153.464,326.417 154.483,326.681 154.748 C 326.746 154.813,326.800 154.668,326.800 154.424 C 326.800 154.181,327.021 153.761,327.291 153.491 L 327.782 153.000 350.300 153.000 L 372.818 153.000 373.309 153.491 L 373.800 153.982 373.800 160.800 L 373.800 167.618 373.309 168.109 L 372.818 168.600 350.336 168.600 C 325.168 168.600,326.827 168.696,326.784 167.235 C 326.776 166.941,326.722 166.816,326.665 166.959 C 326.470 167.444,326.783 168.104,327.373 168.452 C 327.923 168.777,329.443 168.800,350.490 168.800 L 373.018 168.800 373.509 168.309 L 374.000 167.818 374.000 160.800 L 374.000 153.782 373.509 153.291 L 373.018 152.800 350.459 152.805 C 329.660 152.810,327.858 152.837,327.357 153.148 M65.453 153.144 C 65.757 153.189,66.207 153.188,66.453 153.141 C 66.699 153.093,66.450 153.056,65.900 153.057 C 65.350 153.059,65.149 153.098,65.453 153.144 M240.638 153.408 C 240.374 153.654,240.211 154.031,240.227 154.358 C 240.254 154.896,240.255 154.896,240.345 154.400 C 240.394 154.125,240.623 153.697,240.852 153.450 C 241.373 152.888,241.226 152.860,240.638 153.408 M63.752 153.341 C 64.001 153.389,64.361 153.387,64.552 153.337 C 64.744 153.287,64.540 153.248,64.100 153.250 C 63.660 153.253,63.504 153.294,63.752 153.341 M61.100 153.704 C 60.440 153.853,59.765 153.987,59.600 154.003 C 59.435 154.019,59.390 154.068,59.500 154.112 C 59.610 154.157,60.510 154.023,61.500 153.816 C 62.490 153.608,63.075 153.437,62.800 153.436 C 62.525 153.435,61.760 153.555,61.100 153.704 M92.326 154.050 C 92.260 154.298,92.204 157.454,92.203 161.065 L 92.200 167.631 92.785 168.215 L 93.369 168.800 100.485 168.800 L 107.600 168.800 107.601 206.950 C 107.602 246.399,107.599 246.261,108.446 246.776 C 108.877 247.038,108.874 247.025,108.400 246.510 L 107.900 245.968 107.848 207.284 L 107.796 168.600 100.598 168.600 C 91.321 168.600,92.354 169.658,92.440 160.245 C 92.473 156.590,92.488 153.600,92.473 153.600 C 92.459 153.600,92.392 153.803,92.326 154.050 M267.849 200.065 L 267.800 246.031 268.392 246.623 L 268.984 247.215 285.642 247.154 L 302.300 247.093 304.245 246.559 C 310.848 244.747,315.401 238.900,315.170 232.528 C 315.147 231.902,315.123 231.847,315.071 232.300 C 314.060 241.021,309.814 245.703,301.936 246.785 C 298.778 247.219,269.131 247.070,268.572 246.618 L 268.100 246.235 267.999 200.168 L 267.898 154.100 267.849 200.065 M55.534 155.202 C 54.232 155.640,53.017 156.095,52.834 156.214 C 52.547 156.400,52.557 156.411,52.900 156.295 C 53.120 156.220,54.470 155.767,55.900 155.288 C 57.330 154.808,58.365 154.414,58.200 154.411 C 58.035 154.408,56.835 154.764,55.534 155.202 M51.400 156.800 C 51.015 157.011,50.790 157.183,50.900 157.183 C 51.010 157.183,51.415 157.011,51.800 156.800 C 52.185 156.589,52.410 156.417,52.300 156.417 C 52.190 156.417,51.785 156.589,51.400 156.800 M49.150 157.813 C 48.518 158.139,48.000 158.451,48.000 158.506 C 48.000 158.595,50.380 157.462,50.583 157.276 C 50.845 157.037,50.149 157.297,49.150 157.813 M47.150 158.914 C 46.402 159.320,46.448 159.489,47.200 159.100 C 47.530 158.929,47.800 158.747,47.800 158.695 C 47.800 158.566,47.779 158.573,47.150 158.914 M37.043 166.630 C 36.351 167.302,35.816 167.883,35.854 167.921 C 35.892 167.958,36.500 167.407,37.205 166.695 C 38.831 165.054,38.712 165.007,37.043 166.630 M69.650 167.932 C 69.513 167.988,69.400 168.117,69.400 168.218 C 69.400 168.320,69.568 168.298,69.774 168.170 C 70.718 167.580,71.277 168.583,72.489 173.048 C 73.876 178.155,73.391 177.660,78.349 179.036 C 85.360 180.981,85.357 181.781,78.332 183.688 C 73.388 185.031,73.827 184.544,72.290 190.400 C 71.443 193.629,70.748 194.976,70.064 194.714 C 69.906 194.653,69.834 194.693,69.901 194.802 C 70.586 195.910,71.528 194.151,72.793 189.403 C 74.023 184.786,73.647 185.177,77.979 184.006 C 85.773 181.899,85.919 180.857,78.697 178.896 C 73.566 177.503,74.028 177.952,72.723 173.100 C 71.372 168.075,70.970 167.400,69.650 167.932 M34.727 169.117 C 34.412 169.394,34.193 169.660,34.242 169.708 C 34.290 169.756,34.587 169.527,34.902 169.198 C 35.598 168.471,35.508 168.430,34.727 169.117 M69.034 168.950 C 68.698 169.602,68.037 171.696,67.913 172.500 C 67.845 172.940,68.017 172.553,68.296 171.641 C 68.575 170.728,68.932 169.670,69.091 169.291 C 69.390 168.574,69.350 168.336,69.034 168.950 M284.200 200.013 L 284.200 231.426 290.350 231.363 C 297.353 231.291,297.646 231.228,298.750 229.561 L 299.300 228.729 299.353 200.370 C 299.399 175.275,299.370 171.935,299.100 171.355 C 298.932 170.995,298.863 170.880,298.947 171.100 C 299.341 172.130,299.224 227.989,298.826 228.888 C 297.914 230.949,296.959 231.197,289.950 231.199 L 284.400 231.200 284.400 199.987 L 284.400 168.774 290.515 168.837 C 293.878 168.872,296.420 168.841,296.165 168.770 C 295.909 168.698,293.113 168.631,289.950 168.620 L 284.200 168.600 284.200 200.013 M67.401 174.195 C 67.278 174.654,67.211 175.133,67.253 175.260 C 67.295 175.386,67.440 175.054,67.574 174.521 C 67.708 173.987,67.775 173.508,67.722 173.455 C 67.669 173.403,67.525 173.735,67.401 174.195 M30.717 174.329 C 30.526 174.825,30.736 174.893,30.991 174.417 C 31.114 174.188,31.131 174.000,31.028 174.000 C 30.926 174.000,30.786 174.148,30.717 174.329 M29.625 176.126 C 29.289 176.863,29.450 176.907,29.872 176.194 C 30.065 175.867,30.142 175.600,30.043 175.600 C 29.945 175.600,29.756 175.837,29.625 176.126 M66.723 176.523 C 66.519 177.016,66.395 177.462,66.447 177.514 C 66.500 177.566,66.700 177.196,66.892 176.692 C 67.348 175.499,67.205 175.357,66.723 176.523 M28.114 179.011 C 27.027 181.322,25.395 185.536,25.410 185.992 C 25.416 186.161,25.764 185.338,26.184 184.162 C 26.605 182.987,27.495 180.894,28.163 179.512 C 28.831 178.131,29.306 177.000,29.219 177.000 C 29.132 177.000,28.635 177.905,28.114 179.011 M351.000 177.392 C 361.110 177.529,361.878 177.606,364.911 178.781 C 369.060 180.387,371.960 183.846,373.229 188.700 L 373.700 190.500 373.700 212.300 L 373.700 234.100 373.170 236.016 C 371.637 241.560,368.356 244.840,362.816 246.369 L 360.900 246.897 350.100 246.899 C 344.160 246.899,339.705 246.961,340.200 247.035 C 341.722 247.264,359.025 247.220,360.727 246.984 C 366.675 246.156,370.837 243.032,372.745 237.962 C 374.025 234.560,374.024 234.590,373.956 211.300 L 373.894 190.300 373.360 188.355 C 371.976 183.319,368.966 179.947,364.455 178.381 C 361.557 177.374,361.270 177.351,351.200 177.308 L 341.700 177.266 351.000 177.392 M340.150 177.541 C 340.398 177.589,340.803 177.589,341.050 177.541 C 341.298 177.493,341.095 177.454,340.600 177.454 C 340.105 177.454,339.903 177.493,340.150 177.541 M65.300 177.923 C 64.860 178.085,63.918 178.364,63.206 178.544 C 62.494 178.724,62.005 178.902,62.119 178.940 C 62.392 179.031,65.846 178.029,66.090 177.788 C 66.327 177.553,66.283 177.561,65.300 177.923 M338.500 177.701 C 338.390 177.740,337.773 177.918,337.129 178.097 C 335.280 178.612,335.904 178.604,337.900 178.087 C 338.890 177.831,339.475 177.623,339.200 177.626 C 338.925 177.629,338.610 177.663,338.500 177.701 M60.100 179.400 C 59.848 179.508,59.811 179.572,60.000 179.572 C 60.165 179.572,60.480 179.495,60.700 179.400 C 60.952 179.292,60.989 179.228,60.800 179.228 C 60.635 179.228,60.320 179.305,60.100 179.400 M56.614 181.435 C 56.586 182.109,59.834 183.644,61.160 183.585 C 61.347 183.576,60.915 183.399,60.200 183.191 C 58.354 182.653,57.072 182.019,56.833 181.525 C 56.672 181.192,56.624 181.173,56.614 181.435 M329.397 183.304 C 327.825 185.589,326.839 188.702,326.704 191.800 L 326.622 193.700 326.804 191.841 C 327.166 188.144,328.132 185.395,329.857 183.150 C 330.174 182.738,330.340 182.400,330.226 182.400 C 330.112 182.400,329.739 182.807,329.397 183.304 M62.304 183.881 C 62.747 184.028,63.422 184.202,63.804 184.267 C 64.468 184.381,64.463 184.374,63.696 184.119 C 63.253 183.972,62.578 183.798,62.196 183.733 C 61.532 183.619,61.537 183.626,62.304 183.881 M66.668 185.887 C 66.728 186.046,66.879 186.550,67.002 187.008 C 67.125 187.466,67.275 187.792,67.334 187.733 C 67.456 187.611,66.823 185.600,66.663 185.600 C 66.605 185.600,66.607 185.729,66.668 185.887 M24.991 187.230 C 24.068 190.640,23.309 195.700,23.450 197.500 C 23.523 198.434,23.530 198.414,23.565 197.200 C 23.618 195.349,24.319 190.772,24.900 188.480 C 25.172 187.407,25.357 186.490,25.311 186.444 C 25.264 186.398,25.120 186.751,24.991 187.230 M67.417 188.200 C 67.409 188.365,67.486 188.815,67.588 189.200 C 67.691 189.585,67.876 190.292,68.000 190.770 C 68.125 191.249,68.269 191.598,68.321 191.546 C 68.373 191.494,68.229 190.742,68.001 189.876 C 67.509 188.012,67.436 187.802,67.417 188.200 M345.131 193.092 C 343.682 193.608,342.588 195.142,342.628 196.600 C 342.645 197.217,342.666 197.185,342.809 196.333 C 343.277 193.546,344.227 193.128,350.400 192.992 L 355.300 192.883 350.600 192.850 C 347.057 192.826,345.711 192.885,345.131 193.092 M68.800 193.037 C 68.800 193.353,69.264 194.400,69.404 194.400 C 69.495 194.400,69.427 194.108,69.254 193.750 C 68.916 193.054,68.800 192.872,68.800 193.037 M356.153 193.396 C 356.622 193.609,357.057 193.915,357.119 194.076 C 357.180 194.237,357.379 194.426,357.561 194.496 C 358.063 194.688,357.002 193.615,356.360 193.281 C 356.063 193.126,355.703 193.002,355.560 193.004 C 355.417 193.007,355.684 193.183,356.153 193.396 M83.162 194.334 C 84.012 194.512,84.231 195.037,86.220 201.658 C 86.907 203.946,87.469 204.814,88.240 204.780 C 88.689 204.761,88.689 204.757,88.202 204.622 C 87.388 204.395,86.919 203.423,85.912 199.870 C 84.675 195.511,84.116 194.311,83.300 194.268 C 82.872 194.246,82.833 194.264,83.162 194.334 M81.526 196.281 C 81.237 197.096,81.007 197.884,81.015 198.031 C 81.023 198.179,81.237 197.706,81.491 196.981 C 81.745 196.255,82.057 195.468,82.183 195.231 C 82.310 194.994,82.333 194.800,82.233 194.800 C 82.133 194.800,81.815 195.467,81.526 196.281 M358.246 196.400 C 358.246 196.785,358.288 196.942,358.338 196.750 C 358.388 196.558,358.388 196.243,358.338 196.050 C 358.288 195.858,358.246 196.015,358.246 196.400 M223.049 196.850 C 223.100 196.988,223.299 197.578,223.491 198.163 C 223.683 198.748,223.876 199.191,223.919 199.148 C 224.020 199.046,223.196 196.600,223.060 196.600 C 223.004 196.600,222.999 196.713,223.049 196.850 M41.850 197.500 C 41.853 197.940,41.894 198.096,41.941 197.848 C 41.989 197.599,41.987 197.239,41.937 197.048 C 41.887 196.856,41.848 197.060,41.850 197.500 M358.495 212.200 C 358.495 220.395,358.520 223.748,358.550 219.650 C 358.580 215.553,358.580 208.847,358.550 204.750 C 358.520 200.653,358.495 204.005,358.495 212.200 M80.725 198.708 C 80.656 198.886,80.608 199.183,80.617 199.366 C 80.627 199.550,80.714 199.435,80.811 199.110 C 80.999 198.479,80.932 198.166,80.725 198.708 M42.031 199.900 C 41.972 202.783,43.167 208.525,44.624 212.361 C 50.909 228.907,67.101 240.017,84.571 239.770 C 86.498 239.743,86.382 239.725,83.344 239.580 C 61.120 238.522,43.785 222.054,42.206 200.500 C 42.068 198.622,42.058 198.585,42.031 199.900 M23.262 199.900 C 23.263 200.560,23.300 200.806,23.345 200.446 C 23.389 200.087,23.389 199.547,23.343 199.246 C 23.297 198.946,23.261 199.240,23.262 199.900 M224.036 199.600 C 224.662 201.493,225.673 204.194,225.733 204.134 C 225.823 204.044,224.236 199.563,224.059 199.407 C 223.991 199.348,223.981 199.435,224.036 199.600 M80.337 200.076 C 80.262 200.272,80.206 200.583,80.213 200.766 C 80.221 200.987,80.291 200.937,80.418 200.617 C 80.525 200.352,80.580 200.041,80.542 199.927 C 80.504 199.813,80.412 199.881,80.337 200.076 M23.467 203.000 C 23.467 203.825,23.503 204.163,23.546 203.750 C 23.589 203.338,23.589 202.663,23.546 202.250 C 23.503 201.838,23.467 202.175,23.467 203.000 M79.497 202.860 C 79.283 203.432,79.072 203.990,79.029 204.100 C 78.976 204.233,79.016 204.233,79.149 204.100 C 79.401 203.846,80.086 202.020,79.972 201.906 C 79.925 201.859,79.711 202.288,79.497 202.860 M69.700 202.888 C 70.470 203.039,72.180 203.435,73.500 203.767 C 76.671 204.567,78.340 204.854,78.686 204.659 C 78.863 204.560,78.617 204.487,78.035 204.466 C 77.521 204.447,75.659 204.074,73.897 203.636 C 72.135 203.199,70.155 202.790,69.497 202.727 L 68.300 202.614 69.700 202.888 M96.200 202.816 C 95.637 202.947,95.704 202.961,96.542 202.884 C 99.744 202.590,99.389 203.739,94.822 208.446 C 93.655 209.649,92.487 210.988,92.227 211.422 L 91.753 212.210 92.255 212.955 C 92.530 213.365,93.935 214.940,95.375 216.455 C 99.355 220.641,99.553 221.312,96.800 221.281 C 95.711 221.268,95.316 221.314,95.700 221.407 C 100.078 222.470,99.886 220.741,95.074 215.760 C 91.338 211.893,91.325 212.488,95.241 208.343 C 99.773 203.546,100.056 201.916,96.200 202.816 M67.650 202.932 C 66.656 203.334,68.093 205.495,71.300 208.422 C 72.344 209.375,72.157 209.135,70.565 207.479 C 67.703 204.503,67.117 203.501,67.950 203.016 C 68.308 202.808,68.101 202.750,67.650 202.932 M89.300 204.400 C 88.761 204.537,88.751 204.553,89.200 204.556 C 89.475 204.558,89.925 204.488,90.200 204.400 C 90.872 204.185,90.146 204.185,89.300 204.400 M23.621 205.100 C 23.588 206.503,24.795 212.702,25.238 213.400 C 25.445 213.728,25.464 213.823,24.777 211.007 C 24.550 210.077,24.201 208.232,24.000 206.907 C 23.800 205.583,23.629 204.770,23.621 205.100 M226.127 205.400 C 226.194 205.675,226.372 206.170,226.523 206.500 C 226.742 206.982,226.772 207.002,226.673 206.600 C 226.606 206.325,226.428 205.830,226.277 205.500 C 226.058 205.018,226.028 204.998,226.127 205.400 M227.127 208.200 C 227.194 208.475,227.372 208.970,227.523 209.300 C 227.742 209.782,227.772 209.802,227.673 209.400 C 227.606 209.125,227.428 208.630,227.277 208.300 C 227.058 207.818,227.028 207.798,227.127 208.200 M227.836 210.200 C 228.462 212.093,229.473 214.794,229.533 214.734 C 229.623 214.644,228.036 210.163,227.859 210.007 C 227.791 209.948,227.781 210.035,227.836 210.200 M74.090 211.767 C 74.289 212.396,74.002 212.787,70.988 216.006 C 65.526 221.837,66.063 222.631,74.100 220.609 C 77.470 219.761,78.540 219.639,79.000 220.050 C 79.239 220.263,79.241 220.248,79.016 219.950 C 78.611 219.415,77.670 219.510,73.600 220.500 C 66.454 222.238,65.996 221.548,70.897 216.424 C 74.453 212.706,74.948 211.962,74.179 211.487 C 74.030 211.395,74.001 211.488,74.090 211.767 M25.410 214.008 C 25.383 214.817,28.849 223.000,29.219 223.000 C 29.306 223.000,28.831 221.869,28.163 220.488 C 27.495 219.106,26.605 217.013,26.184 215.838 C 25.764 214.662,25.416 213.839,25.410 214.008 M229.649 215.250 C 229.700 215.388,229.899 215.978,230.091 216.563 C 230.283 217.148,230.476 217.591,230.519 217.548 C 230.620 217.446,229.796 215.000,229.660 215.000 C 229.604 215.000,229.599 215.113,229.649 215.250 M230.927 218.800 C 230.994 219.075,231.172 219.570,231.323 219.900 C 231.542 220.382,231.572 220.402,231.473 220.000 C 231.406 219.725,231.228 219.230,231.077 218.900 C 230.858 218.418,230.828 218.398,230.927 218.800 M87.025 220.352 C 86.814 220.765,86.214 222.588,85.691 224.402 C 84.598 228.197,83.986 229.649,83.350 229.956 C 83.038 230.106,82.998 230.177,83.219 230.186 C 84.003 230.220,84.565 229.041,85.792 224.787 C 86.336 222.903,86.953 221.032,87.164 220.631 L 87.548 219.900 88.924 219.922 C 89.827 219.936,90.128 219.892,89.800 219.792 C 88.388 219.363,87.431 219.556,87.025 220.352 M79.315 220.800 C 79.388 221.075,79.532 221.435,79.634 221.600 C 79.763 221.808,79.778 221.747,79.685 221.400 C 79.612 221.125,79.468 220.765,79.366 220.600 C 79.237 220.392,79.222 220.453,79.315 220.800 M231.649 220.850 C 231.700 220.988,231.899 221.578,232.091 222.163 C 232.283 222.748,232.476 223.191,232.519 223.148 C 232.620 223.046,231.796 220.600,231.660 220.600 C 231.604 220.600,231.599 220.713,231.649 220.850 M80.017 222.900 C 80.011 223.120,80.093 223.435,80.200 223.600 C 80.457 223.998,80.457 223.498,80.200 222.900 L 80.028 222.500 80.017 222.900 M29.400 223.291 C 29.400 223.550,29.888 224.400,30.037 224.400 C 30.132 224.400,30.071 224.130,29.900 223.800 C 29.623 223.265,29.400 223.037,29.400 223.291 M232.636 223.600 C 233.262 225.493,234.273 228.194,234.333 228.134 C 234.423 228.044,232.836 223.563,232.659 223.407 C 232.591 223.348,232.581 223.435,232.636 223.600 M80.417 224.300 C 80.411 224.520,80.493 224.835,80.600 225.000 C 80.857 225.398,80.857 224.898,80.600 224.300 L 80.428 223.900 80.417 224.300 M30.609 225.300 C 30.605 225.597,30.962 226.105,31.087 225.980 C 31.147 225.920,31.065 225.697,30.904 225.485 C 30.744 225.273,30.611 225.190,30.609 225.300 M80.817 225.700 C 80.811 225.920,80.893 226.235,81.000 226.400 C 81.257 226.798,81.257 226.298,81.000 225.700 L 80.828 225.300 80.817 225.700 M81.222 227.100 C 81.218 227.320,81.343 227.725,81.500 228.000 C 81.856 228.623,81.856 228.325,81.500 227.400 C 81.323 226.942,81.228 226.838,81.222 227.100 M342.682 228.254 C 342.892 231.129,344.188 231.700,350.500 231.700 C 356.812 231.700,358.108 231.129,358.318 228.254 L 358.388 227.300 358.201 228.169 C 357.596 230.987,356.220 231.600,350.500 231.600 C 344.780 231.600,343.404 230.987,342.799 228.169 L 342.612 227.300 342.682 228.254 M81.800 228.657 C 81.800 228.982,82.286 229.790,82.540 229.888 C 82.724 229.958,82.667 229.768,82.377 229.349 C 81.798 228.509,81.800 228.512,81.800 228.657 M234.727 229.400 C 234.794 229.675,234.972 230.170,235.123 230.500 C 235.342 230.982,235.372 231.002,235.273 230.600 C 235.206 230.325,235.028 229.830,234.877 229.500 C 234.658 229.018,234.628 228.998,234.727 229.400 M34.211 230.350 C 34.217 230.433,34.510 230.719,34.861 230.987 L 35.500 231.474 34.913 230.837 C 34.301 230.174,34.193 230.099,34.211 230.350 M326.704 232.500 C 326.747 233.600,326.874 234.770,326.987 235.100 C 327.165 235.622,327.175 235.583,327.066 234.800 C 326.997 234.305,326.870 233.135,326.784 232.200 L 326.627 230.500 326.704 232.500 M235.727 232.200 C 235.794 232.475,235.972 232.970,236.123 233.300 C 236.342 233.782,236.372 233.802,236.273 233.400 C 236.206 233.125,236.028 232.630,235.877 232.300 C 235.658 231.818,235.628 231.798,235.727 232.200 M35.823 232.150 C 35.836 232.232,36.444 232.837,37.173 233.494 L 38.500 234.689 37.206 233.344 C 35.890 231.978,35.782 231.884,35.823 232.150 M236.435 234.200 C 237.127 236.291,239.076 241.590,239.133 241.533 C 239.223 241.443,236.636 234.163,236.459 234.008 C 236.392 233.948,236.381 234.035,236.435 234.200 M327.203 236.117 C 327.205 236.328,327.297 236.635,327.409 236.800 C 327.557 237.019,327.576 236.938,327.478 236.500 C 327.313 235.765,327.199 235.605,327.203 236.117 M98.500 237.107 C 97.906 237.393,98.347 237.348,99.200 237.035 C 100.860 236.426,95.134 240.288,91.998 241.892 C 85.447 245.243,79.530 246.697,71.200 247.002 L 66.900 247.160 71.400 247.096 C 81.367 246.955,89.424 244.410,97.500 238.853 C 99.814 237.260,100.436 236.175,98.500 237.107 M96.000 237.900 C 95.615 238.048,95.435 238.170,95.600 238.170 C 95.765 238.170,96.215 238.048,96.600 237.900 C 96.985 237.752,97.165 237.630,97.000 237.630 C 96.835 237.630,96.385 237.752,96.000 237.900 M327.814 237.884 C 327.788 238.219,329.056 240.800,329.246 240.800 C 329.349 240.800,329.250 240.504,329.026 240.142 C 328.802 239.780,328.441 239.083,328.224 238.592 C 328.006 238.101,327.822 237.783,327.814 237.884 M87.900 239.400 L 86.700 239.533 87.700 239.552 C 88.250 239.562,89.105 239.498,89.600 239.410 C 90.762 239.203,89.732 239.197,87.900 239.400 M46.600 240.690 C 46.600 240.745,46.870 240.929,47.200 241.100 C 47.530 241.271,47.800 241.365,47.800 241.310 C 47.800 241.255,47.530 241.071,47.200 240.900 C 46.870 240.729,46.600 240.635,46.600 240.690 M48.400 241.699 C 48.400 241.833,50.424 242.842,50.514 242.752 C 50.555 242.711,50.096 242.436,49.494 242.141 C 48.892 241.846,48.400 241.647,48.400 241.699 M330.217 242.150 C 330.226 242.232,330.609 242.611,331.067 242.991 L 331.900 243.682 331.109 242.841 C 330.296 241.976,330.188 241.892,330.217 242.150 M239.527 242.800 C 239.594 243.075,239.772 243.570,239.923 243.900 C 240.142 244.382,240.172 244.402,240.073 244.000 C 240.006 243.725,239.828 243.230,239.677 242.900 C 239.458 242.418,239.428 242.398,239.527 242.800 M51.400 243.200 C 51.785 243.411,52.190 243.583,52.300 243.583 C 52.410 243.583,52.185 243.411,51.800 243.200 C 51.415 242.989,51.010 242.817,50.900 242.817 C 50.790 242.817,51.015 242.989,51.400 243.200 M52.800 243.785 C 53.252 244.046,56.598 245.202,56.866 245.190 C 56.995 245.184,56.110 244.825,54.900 244.392 C 52.666 243.591,52.262 243.475,52.800 243.785 M57.500 245.400 C 57.720 245.495,58.035 245.572,58.200 245.572 C 58.389 245.572,58.352 245.508,58.100 245.400 C 57.880 245.305,57.565 245.228,57.400 245.228 C 57.211 245.228,57.248 245.292,57.500 245.400 M240.517 245.600 C 240.665 246.157,240.759 246.307,240.884 246.183 C 240.930 246.137,240.836 245.875,240.675 245.600 L 240.383 245.100 240.517 245.600 M336.300 246.107 C 336.630 246.258,337.035 246.379,337.200 246.376 C 337.365 246.372,337.185 246.248,336.800 246.100 C 335.887 245.748,335.528 245.754,336.300 246.107 M63.752 246.741 C 64.001 246.789,64.361 246.787,64.552 246.737 C 64.744 246.687,64.540 246.648,64.100 246.650 C 63.660 246.653,63.504 246.694,63.752 246.741 M65.453 246.944 C 65.757 246.989,66.207 246.988,66.453 246.941 C 66.699 246.893,66.450 246.856,65.900 246.857 C 65.350 246.859,65.149 246.898,65.453 246.944 " stroke="none" fill="#1c2824" fill-rule="evenodd"></path><path id="path4" d="" stroke="none" fill="#1c1428" fill-rule="evenodd"></path></g></svg>