<svg id="svg" version="1.1" xmlns="http://www.w3.org/2000/svg" xmlns:xlink="http://www.w3.org/1999/xlink" width="400" height="400" viewBox="0, 0, 400,400"><g id="svgg"><path id="path0" d="M67.400 153.131 C 41.880 155.577,23.600 175.138,23.600 200.000 C 23.600 237.391,65.368 259.770,96.540 239.081 C 99.187 237.324,99.405 237.082,97.857 237.616 C 67.081 248.242,36.252 220.994,42.706 188.871 C 46.396 170.503,63.640 155.537,81.526 155.176 C 84.075 155.125,84.070 154.932,81.500 154.349 C 76.539 153.223,71.228 152.764,67.400 153.131 M93.371 153.303 C 92.482 153.786,92.400 154.420,92.400 160.800 C 92.400 169.401,91.518 168.600,100.990 168.600 L 108.000 168.600 108.000 207.091 C 108.000 248.051,107.958 246.368,108.986 246.794 C 110.160 247.281,122.917 246.972,123.445 246.444 L 123.900 245.989 123.952 207.294 L 124.003 168.600 130.872 168.600 C 137.950 168.600,138.817 168.516,139.204 167.792 C 139.418 167.392,139.485 154.454,139.276 153.909 C 138.919 152.980,139.426 152.999,115.960 153.008 C 97.175 153.015,93.821 153.059,93.371 153.303 M148.604 153.255 C 147.549 153.792,147.601 151.201,147.652 200.244 L 147.700 245.989 148.156 246.444 L 148.611 246.900 171.100 246.900 L 193.589 246.900 194.044 246.444 L 194.500 245.989 194.500 239.200 L 194.500 232.411 194.045 231.956 L 193.589 231.500 178.395 231.446 L 163.200 231.393 163.200 219.601 L 163.200 207.809 174.895 207.755 L 186.589 207.700 187.045 207.245 C 187.911 206.378,187.823 193.255,186.945 192.354 C 186.920 192.329,181.590 192.261,175.100 192.204 L 163.300 192.100 163.300 180.400 L 163.300 168.700 178.416 168.649 L 193.533 168.598 194.016 168.083 L 194.500 167.568 194.500 160.789 L 194.500 154.011 194.044 153.556 L 193.589 153.100 171.344 153.052 C 153.754 153.013,148.996 153.056,148.604 153.255 M207.204 153.257 C 206.149 153.791,206.201 151.201,206.252 200.244 L 206.300 245.989 206.756 246.444 L 207.211 246.900 214.223 246.900 L 221.235 246.900 221.717 246.339 L 222.200 245.778 222.200 220.574 C 222.200 197.466,222.227 195.376,222.523 195.435 C 222.757 195.482,225.275 202.281,231.620 220.000 C 236.446 233.475,240.540 244.890,240.720 245.367 C 241.339 247.013,241.350 247.015,248.845 246.954 C 255.355 246.900,255.392 246.898,255.845 246.444 L 256.300 245.989 256.300 200.000 L 256.300 154.011 255.845 153.556 C 255.317 153.028,242.560 152.719,241.386 153.206 C 240.369 153.627,240.400 152.810,240.400 179.409 C 240.400 203.440,240.386 204.400,240.036 204.400 C 239.734 204.400,238.204 200.290,231.008 180.150 C 226.243 166.813,222.168 155.421,221.952 154.835 C 221.270 152.983,221.348 153.001,214.000 153.004 C 209.347 153.005,207.570 153.072,207.204 153.257 M269.000 153.259 C 267.950 153.789,267.992 151.695,268.048 200.517 L 268.100 245.989 268.556 246.444 L 269.011 246.900 285.256 246.899 C 301.383 246.897,301.514 246.894,303.400 246.449 C 309.264 245.065,312.981 241.447,314.442 235.700 L 314.900 233.900 314.900 200.000 L 314.900 166.100 314.453 164.400 C 312.700 157.735,308.237 154.031,300.954 153.193 C 298.311 152.889,269.615 152.948,269.000 153.259 M327.871 153.197 C 326.822 153.624,326.800 153.783,326.800 160.833 L 326.800 167.378 327.283 167.939 L 327.765 168.500 350.277 168.500 L 372.789 168.500 373.244 168.044 L 373.700 167.589 373.700 160.800 L 373.700 154.011 373.244 153.556 L 372.789 153.100 350.544 153.061 C 338.257 153.040,328.108 153.101,327.871 153.197 M69.751 168.350 C 69.260 168.902,68.839 170.076,67.995 173.242 C 66.681 178.175,67.046 177.800,62.300 179.088 C 55.200 181.015,55.187 181.664,62.211 183.603 C 67.198 184.979,66.651 184.427,68.001 189.454 C 69.831 196.271,70.594 196.300,72.396 189.620 C 73.783 184.479,73.363 184.912,78.220 183.609 C 85.122 181.756,85.126 180.968,78.245 179.099 C 73.346 177.768,73.741 178.117,72.704 174.199 C 71.236 168.651,70.601 167.393,69.751 168.350 M296.954 168.910 C 297.902 169.306,298.529 169.896,299.069 170.900 L 299.500 171.700 299.500 200.005 L 299.500 228.311 298.996 229.305 C 298.587 230.112,298.287 230.404,297.410 230.850 L 296.328 231.400 290.164 231.400 L 284.000 231.400 284.000 200.000 L 284.000 168.600 290.106 168.600 C 295.166 168.600,296.340 168.653,296.954 168.910 M339.423 177.821 C 333.109 178.898,328.907 182.735,327.372 188.826 L 326.900 190.700 326.900 212.000 C 326.900 229.357,326.951 233.559,327.177 234.700 C 328.596 241.861,333.186 245.926,340.846 246.807 C 343.149 247.072,357.684 247.050,359.900 246.778 C 367.431 245.855,371.789 241.969,373.334 234.797 C 373.954 231.923,373.891 192.161,373.263 189.337 C 371.958 183.469,368.435 179.740,362.700 178.156 C 360.946 177.671,341.904 177.397,339.423 177.821 M356.222 193.127 C 358.684 194.263,358.627 193.783,358.558 212.800 L 358.500 228.900 357.970 229.802 C 356.915 231.597,356.508 231.700,350.500 231.700 C 344.492 231.700,344.085 231.597,343.030 229.802 L 342.500 228.900 342.442 212.800 C 342.375 194.171,342.357 194.357,344.404 193.298 C 346.037 192.453,354.496 192.331,356.222 193.127 M82.649 194.650 C 82.163 195.259,81.741 196.387,80.894 199.339 C 79.087 205.634,79.555 205.344,73.555 203.889 C 66.490 202.176,66.193 202.676,71.170 207.900 C 75.410 212.350,75.391 211.958,71.543 215.942 C 66.020 221.659,66.275 222.211,73.600 220.406 C 79.531 218.945,79.087 218.699,80.708 224.344 C 82.732 231.386,83.539 231.497,85.391 224.986 C 87.204 218.609,86.679 218.938,92.700 220.406 C 99.876 222.156,100.162 221.722,95.267 216.513 C 90.907 211.873,90.928 212.375,94.918 208.176 C 100.154 202.666,99.865 202.133,92.600 203.900 C 87.066 205.246,87.212 205.289,86.205 202.000 C 85.885 200.955,85.305 199.057,84.916 197.783 C 84.029 194.877,83.287 193.851,82.649 194.650 " stroke="none" fill="#f4f4f4" fill-rule="evenodd"></path><path id="path1" d="M67.050 153.138 C 67.242 153.188,67.558 153.188,67.750 153.138 C 67.942 153.088,67.785 153.046,67.400 153.046 C 67.015 153.046,66.858 153.088,67.050 153.138 M73.450 153.138 C 73.642 153.188,73.958 153.188,74.150 153.138 C 74.343 153.088,74.185 153.046,73.800 153.046 C 73.415 153.046,73.258 153.088,73.450 153.138 M220.417 153.061 C 220.463 153.094,220.770 153.279,221.100 153.472 L 221.700 153.824 221.228 153.412 C 220.968 153.185,220.661 153.000,220.545 153.000 C 220.428 153.000,220.371 153.027,220.417 153.061 M139.489 160.800 C 139.489 164.375,139.516 165.838,139.550 164.050 C 139.583 162.263,139.583 159.338,139.550 157.550 C 139.516 155.763,139.489 157.225,139.489 160.800 M83.400 155.000 C 82.930 155.151,82.940 155.161,83.562 155.180 C 83.956 155.192,84.174 155.119,84.100 155.000 C 84.032 154.890,83.959 154.809,83.938 154.820 C 83.917 154.831,83.675 154.912,83.400 155.000 M240.297 179.600 C 240.297 193.295,240.321 198.898,240.350 192.050 C 240.379 185.203,240.379 173.998,240.350 167.150 C 240.321 160.303,240.297 165.905,240.297 179.600 M326.689 160.800 C 326.689 164.155,326.716 165.528,326.750 163.850 C 326.783 162.173,326.783 159.428,326.750 157.750 C 326.716 156.072,326.689 157.445,326.689 160.800 M310.592 157.250 C 311.420 158.133,311.600 158.292,311.600 158.142 C 311.600 158.110,311.173 157.682,310.650 157.192 L 309.700 156.300 310.592 157.250 M312.900 160.400 C 313.071 160.730,313.255 161.000,313.310 161.000 C 313.365 161.000,313.271 160.730,313.100 160.400 C 312.929 160.070,312.745 159.800,312.690 159.800 C 312.635 159.800,312.729 160.070,312.900 160.400 M39.887 164.250 L 39.300 164.900 39.950 164.313 C 40.556 163.765,40.692 163.600,40.537 163.600 C 40.503 163.600,40.210 163.893,39.887 164.250 M56.687 165.250 L 56.100 165.900 56.750 165.313 C 57.356 164.765,57.492 164.600,57.337 164.600 C 57.303 164.600,57.010 164.893,56.687 165.250 M37.196 166.750 L 35.300 168.700 37.250 166.804 C 38.323 165.761,39.200 164.884,39.200 164.854 C 39.200 164.709,38.957 164.939,37.196 166.750 M54.196 167.550 L 52.500 169.300 54.250 167.604 C 55.875 166.030,56.091 165.800,55.946 165.800 C 55.916 165.800,55.128 166.588,54.196 167.550 M315.098 200.100 C 315.098 217.590,315.121 224.715,315.150 215.934 C 315.179 207.153,315.179 192.843,315.150 184.134 C 315.121 175.425,315.098 182.610,315.098 200.100 M107.898 207.000 C 107.898 228.175,107.921 236.838,107.950 226.250 C 107.979 215.663,107.979 198.338,107.950 187.750 C 107.921 177.163,107.898 185.825,107.898 207.000 M163.292 168.850 C 163.239 168.988,163.220 174.275,163.248 180.600 L 163.300 192.100 174.750 192.102 L 186.200 192.105 174.800 192.051 L 163.400 191.997 163.400 180.400 L 163.400 168.803 178.350 168.750 L 193.300 168.697 178.344 168.649 C 166.527 168.610,163.367 168.652,163.292 168.850 M284.098 200.000 C 284.098 217.325,284.121 224.413,284.150 215.750 C 284.179 207.088,284.179 192.913,284.150 184.250 C 284.121 175.588,284.098 182.675,284.098 200.000 M297.600 169.263 C 297.600 169.297,297.893 169.590,298.250 169.913 L 298.900 170.500 298.313 169.850 C 297.765 169.244,297.600 169.108,297.600 169.263 M32.972 171.550 C 32.397 172.245,32.153 172.600,32.252 172.600 C 32.307 172.600,32.593 172.285,32.886 171.900 C 33.431 171.186,33.497 170.916,32.972 171.550 M299.497 200.100 C 299.497 215.280,299.521 221.520,299.550 213.966 C 299.579 206.412,299.579 193.992,299.550 186.366 C 299.521 178.740,299.497 184.920,299.497 200.100 M73.400 176.745 C 73.400 176.861,73.585 177.168,73.812 177.428 L 74.224 177.900 73.872 177.300 C 73.410 176.510,73.400 176.499,73.400 176.745 M46.290 178.420 C 45.896 179.202,45.607 179.874,45.647 179.913 C 45.687 179.953,46.052 179.314,46.458 178.493 C 46.864 177.672,47.154 177.000,47.101 177.000 C 47.048 177.000,46.683 177.639,46.290 178.420 M345.750 177.550 C 348.198 177.582,352.203 177.582,354.650 177.550 C 357.098 177.518,355.095 177.492,350.200 177.492 C 345.305 177.492,343.303 177.518,345.750 177.550 M365.417 179.075 C 365.622 179.259,366.800 179.800,366.800 179.710 C 366.800 179.595,365.691 179.000,365.477 179.000 C 365.398 179.000,365.371 179.034,365.417 179.075 M330.989 181.750 L 330.300 182.500 331.050 181.811 C 331.748 181.169,331.892 181.000,331.739 181.000 C 331.706 181.000,331.368 181.338,330.989 181.750 M348.461 192.749 C 349.649 192.785,351.539 192.785,352.661 192.749 C 353.782 192.713,352.810 192.684,350.500 192.685 C 348.190 192.685,347.272 192.714,348.461 192.749 M326.696 212.200 C 326.696 222.485,326.720 226.693,326.750 221.550 C 326.780 216.407,326.780 207.993,326.750 202.850 C 326.720 197.708,326.696 201.915,326.696 212.200 M41.862 195.700 C 41.863 196.360,41.900 196.606,41.945 196.246 C 41.989 195.887,41.989 195.347,41.943 195.046 C 41.897 194.746,41.861 195.040,41.862 195.700 M23.646 196.000 C 23.646 196.385,23.688 196.543,23.738 196.350 C 23.788 196.158,23.788 195.843,23.738 195.650 C 23.688 195.458,23.646 195.615,23.646 196.000 M342.495 212.200 C 342.495 221.055,342.520 224.678,342.550 220.250 C 342.580 215.823,342.580 208.578,342.550 204.150 C 342.520 199.723,342.495 203.345,342.495 212.200 M358.446 196.800 C 358.446 197.185,358.488 197.343,358.538 197.150 C 358.588 196.958,358.588 196.643,358.538 196.450 C 358.488 196.258,358.446 196.415,358.446 196.800 M41.862 199.300 C 41.863 199.960,41.900 200.206,41.945 199.846 C 41.989 199.487,41.989 198.947,41.943 198.646 C 41.897 198.346,41.861 198.640,41.862 199.300 M23.470 200.000 C 23.470 200.935,23.504 201.317,23.546 200.850 C 23.589 200.383,23.589 199.618,23.546 199.150 C 23.504 198.683,23.470 199.065,23.470 200.000 M68.552 202.941 C 68.801 202.989,69.161 202.987,69.352 202.937 C 69.544 202.887,69.340 202.848,68.900 202.850 C 68.460 202.853,68.304 202.894,68.552 202.941 M97.152 202.941 C 97.401 202.989,97.761 202.987,97.952 202.937 C 98.144 202.887,97.940 202.848,97.500 202.850 C 97.060 202.853,96.904 202.894,97.152 202.941 M23.646 204.000 C 23.646 204.385,23.688 204.543,23.738 204.350 C 23.788 204.158,23.788 203.843,23.738 203.650 C 23.688 203.458,23.646 203.615,23.646 204.000 M86.974 204.139 C 87.100 204.380,87.298 204.637,87.414 204.709 C 87.813 204.955,87.723 204.701,87.234 204.200 C 86.792 203.747,86.768 203.741,86.974 204.139 M97.287 205.650 L 96.700 206.300 97.350 205.713 C 97.956 205.165,98.092 205.000,97.937 205.000 C 97.903 205.000,97.610 205.293,97.287 205.650 M70.500 207.400 C 71.485 208.390,72.337 209.200,72.392 209.200 C 72.447 209.200,71.685 208.390,70.700 207.400 C 69.715 206.410,68.863 205.600,68.808 205.600 C 68.753 205.600,69.515 206.410,70.500 207.400 M94.596 208.550 L 92.700 210.500 94.650 208.604 C 95.723 207.561,96.600 206.684,96.600 206.654 C 96.600 206.509,96.357 206.739,94.596 208.550 M163.294 219.600 C 163.294 226.145,163.319 228.822,163.350 225.550 C 163.381 222.278,163.381 216.923,163.350 213.650 C 163.319 210.378,163.294 213.055,163.294 219.600 M73.200 210.300 C 73.573 210.685,73.923 211.000,73.978 211.000 C 74.033 211.000,73.773 210.685,73.400 210.300 C 73.027 209.915,72.677 209.600,72.622 209.600 C 72.567 209.600,72.827 209.915,73.200 210.300 M92.215 211.127 C 91.987 211.417,91.803 211.754,91.806 211.877 C 91.809 212.000,91.912 211.920,92.034 211.700 C 92.156 211.480,92.392 211.143,92.559 210.950 C 92.726 210.757,92.810 210.600,92.746 210.600 C 92.681 210.600,92.442 210.837,92.215 211.127 M74.162 211.500 C 74.263 211.720,74.396 212.035,74.457 212.200 C 74.553 212.459,74.571 212.458,74.584 212.188 C 74.593 212.017,74.460 211.702,74.289 211.488 C 73.983 211.106,73.981 211.106,74.162 211.500 M93.100 214.200 C 93.530 214.640,93.926 215.000,93.981 215.000 C 94.036 215.000,93.730 214.640,93.300 214.200 C 92.870 213.760,92.474 213.400,92.419 213.400 C 92.364 213.400,92.670 213.760,93.100 214.200 M71.296 216.050 L 69.300 218.100 71.350 216.104 C 73.254 214.250,73.491 214.000,73.346 214.000 C 73.317 214.000,72.394 214.923,71.296 216.050 M96.100 217.400 C 96.864 218.170,97.534 218.800,97.589 218.800 C 97.644 218.800,97.064 218.170,96.300 217.400 C 95.536 216.630,94.866 216.000,94.811 216.000 C 94.756 216.000,95.336 216.630,96.100 217.400 M52.200 225.300 C 52.573 225.685,52.923 226.000,52.978 226.000 C 53.033 226.000,52.773 225.685,52.400 225.300 C 52.027 224.915,51.677 224.600,51.622 224.600 C 51.567 224.600,51.827 224.915,52.200 225.300 M54.200 227.500 C 54.573 227.885,54.923 228.200,54.978 228.200 C 55.033 228.200,54.773 227.885,54.400 227.500 C 54.027 227.115,53.677 226.800,53.622 226.800 C 53.567 226.800,53.827 227.115,54.200 227.500 M358.446 227.600 C 358.446 227.985,358.488 228.143,358.538 227.950 C 358.588 227.757,358.588 227.443,358.538 227.250 C 358.488 227.058,358.446 227.215,358.446 227.600 M32.596 227.994 C 32.828 228.321,33.121 228.651,33.246 228.728 C 33.370 228.805,33.221 228.538,32.913 228.134 C 32.244 227.258,31.992 227.146,32.596 227.994 M56.200 229.300 C 56.573 229.685,56.923 230.000,56.978 230.000 C 57.033 230.000,56.773 229.685,56.400 229.300 C 56.027 228.915,55.677 228.600,55.622 228.600 C 55.567 228.600,55.827 228.915,56.200 229.300 M82.481 229.550 C 82.691 229.798,83.006 229.993,83.181 229.984 C 83.452 229.971,83.455 229.952,83.200 229.858 C 83.035 229.797,82.720 229.602,82.500 229.424 C 82.103 229.103,82.103 229.104,82.481 229.550 M37.200 233.300 C 38.241 234.345,39.137 235.200,39.192 235.200 C 39.247 235.200,38.441 234.345,37.400 233.300 C 36.359 232.255,35.463 231.400,35.408 231.400 C 35.353 231.400,36.159 232.255,37.200 233.300 M373.646 232.400 C 373.646 232.785,373.688 232.943,373.738 232.750 C 373.788 232.558,373.788 232.243,373.738 232.050 C 373.688 231.857,373.646 232.015,373.646 232.400 M64.000 234.699 C 64.000 234.833,66.024 235.842,66.114 235.752 C 66.155 235.711,65.696 235.436,65.094 235.141 C 64.492 234.846,64.000 234.647,64.000 234.699 M39.400 235.263 C 39.400 235.297,39.693 235.590,40.050 235.913 L 40.700 236.500 40.113 235.850 C 39.565 235.244,39.400 235.108,39.400 235.263 M80.850 239.738 C 81.043 239.788,81.358 239.788,81.550 239.738 C 81.743 239.688,81.585 239.646,81.200 239.646 C 80.815 239.646,80.658 239.688,80.850 239.738 M86.952 239.741 C 87.201 239.789,87.561 239.787,87.752 239.737 C 87.944 239.687,87.740 239.648,87.300 239.650 C 86.860 239.653,86.704 239.694,86.952 239.741 M310.694 242.650 L 309.500 243.900 310.750 242.706 C 311.911 241.597,312.092 241.400,311.944 241.400 C 311.913 241.400,311.350 241.963,310.694 242.650 M331.000 242.700 C 331.597 243.305,332.131 243.800,332.186 243.800 C 332.241 243.800,331.797 243.305,331.200 242.700 C 330.603 242.095,330.069 241.600,330.014 241.600 C 329.959 241.600,330.403 242.095,331.000 242.700 M369.389 242.750 L 368.700 243.500 369.450 242.811 C 370.148 242.169,370.292 242.000,370.139 242.000 C 370.106 242.000,369.768 242.338,369.389 242.750 M307.550 244.914 C 306.802 245.320,306.848 245.489,307.600 245.100 C 307.930 244.929,308.200 244.747,308.200 244.695 C 308.200 244.566,308.179 244.573,307.550 244.914 M241.372 246.588 C 241.632 246.815,241.939 247.000,242.055 247.000 C 242.301 247.000,242.290 246.990,241.500 246.528 L 240.900 246.176 241.372 246.588 M67.050 246.938 C 67.242 246.988,67.558 246.988,67.750 246.938 C 67.942 246.888,67.785 246.846,67.400 246.846 C 67.015 246.846,66.858 246.888,67.050 246.938 M73.250 246.938 C 73.442 246.988,73.758 246.988,73.950 246.938 C 74.142 246.888,73.985 246.846,73.600 246.846 C 73.215 246.846,73.058 246.888,73.250 246.938 " stroke="none" fill="#fcfbf9" fill-rule="evenodd"></path><path id="path2" d="" stroke="none" fill="#f8f4f4" fill-rule="evenodd"></path><path id="path3" d="" stroke="none" fill="#f4fcf8" fill-rule="evenodd"></path><path id="path4" d="" stroke="none" fill="#f4f4fc" fill-rule="evenodd"></path></g></svg>